<?xml version="1.0" encoding="UTF-8"?>
<svg id="Layer_2" xmlns="http://www.w3.org/2000/svg" viewBox="0 0 592 713.16">
  <defs>
    <style>
      .cls-1 {
        fill: #fb8d28;
      }

      .cls-2 {
        fill: #2f1106;
      }
    </style>
  </defs>
  <g id="Layer_1-2" data-name="Layer_1">
    <g>
      <g>
        <path class="cls-2" d="M.1,406.66C.1,305.86.12,205.06,0,104.26c0-3.42.67-4.1,4.09-4.09,194.6.11,389.21.11,583.81,0,3.42,0,4.09.67,4.09,4.09-.11,201.6-.11,403.21,0,604.81,0,3.42-.67,4.1-4.09,4.09-194.6-.11-389.21-.11-583.81,0-3.42,0-4.1-.67-4.09-4.09.12-100.8.1-201.6.1-302.41ZM248.8,237.51c-10.66,0-21.33.21-31.98-.1-4.67-.13-6.99,1.16-8.48,5.93-9.82,31.47-19.99,62.84-30.04,94.24-23.92,74.67-47.85,149.35-71.75,224.03-1.88,5.87-1.12,6.58,5.12,6.43,16.47-.39,32.94-.91,49.4-.7,4.27.05,5.81-.95,6.97-4.79,8.35-27.49,17-54.89,25.28-82.41,1.4-4.66,3.57-6.2,8.42-6.17,30.65.21,61.31.2,91.96.02,4.4-.03,6.35,1.27,7.69,5.58,8.65,27.83,17.64,55.55,26.46,83.33.89,2.8,2.01,4.69,5.43,4.68,18.82-.08,37.65-.04,56.47,0,3.33,0,4.49-1.03,3.28-4.54-3.08-8.98-5.85-18.06-8.78-27.08-17.02-52.42-34.06-104.83-51.07-157.26-14.59-44.97-29.19-89.95-43.63-134.97-1.5-4.67-3.6-6.61-8.78-6.39-10.64.46-21.32.14-31.98.15ZM489.69,448.27h.07c0-37.8-.1-75.59.12-113.39.03-4.81-1.52-5.87-5.95-5.82-16.15.19-32.3.21-48.45-.06-4.84-.08-6.18,1.49-6.17,6.28.15,75.42.14,150.85.04,226.28,0,4.5,1.24,6.16,5.93,6.09,15.98-.24,31.97-.23,47.95.02,4.97.08,6.58-1.43,6.56-6.52-.19-37.63-.1-75.26-.1-112.89ZM459.77,229.87c-44.33-.12-43.63,66.7,1.1,64.94,43.17-1.7,41.91-64.83-1.1-64.94Z"/>
        <path class="cls-1" d="M248.8,237.51c10.66,0,21.34.32,31.98-.14,5.18-.22,7.28,1.72,8.78,6.39,14.43,45.03,29.04,90,43.63,134.97,17.01,52.42,34.05,104.84,51.07,157.26,2.93,9.03,5.7,18.11,8.78,27.08,1.2,3.5.05,4.54-3.28,4.54-18.82-.04-37.65-.09-56.47,0-3.42.02-4.54-1.88-5.43-4.68-8.82-27.78-17.81-55.5-26.46-83.33-1.34-4.31-3.29-5.61-7.69-5.58-30.65.18-61.31.19-91.96-.02-4.84-.03-7.01,1.5-8.42,6.17-8.28,27.51-16.92,54.91-25.28,82.41-1.17,3.84-2.7,4.85-6.97,4.79-16.46-.21-32.93.31-49.4.7-6.25.15-7-.57-5.12-6.43,23.91-74.68,47.83-149.35,71.75-224.03,10.06-31.4,20.22-62.77,30.04-94.24,1.49-4.77,3.81-6.07,8.48-5.93,10.65.3,21.32.1,31.98.09ZM247.15,286.18c-2.06,2.2-2.07,4.12-2.52,5.85-4.74,18.37-8.92,36.91-14.28,55.1-7.33,24.87-15.6,49.47-23.39,74.21-2.23,7.07-2.1,7.1,5.58,7.09,22.15-.02,44.3-.05,66.45-.02,10.81.01,10.65.12,7.38-10.41-10.91-35.13-23.34-69.78-32.39-105.48-2.16-8.52-4.41-17.01-6.83-26.33Z"/>
        <path class="cls-1" d="M489.69,448.27c0,37.63-.09,75.26.1,112.89.03,5.09-1.59,6.6-6.56,6.52-15.98-.26-31.97-.26-47.95-.02-4.7.07-5.94-1.59-5.93-6.09.1-75.43.1-150.85-.04-226.28,0-4.79,1.33-6.36,6.17-6.28,16.15.26,32.3.25,48.45.06,4.42-.05,5.97,1.01,5.95,5.82-.22,37.79-.12,75.59-.12,113.39h-.07Z"/>
        <path class="cls-1" d="M459.77,229.87c43.01.11,44.27,63.24,1.1,64.94-44.73,1.76-45.43-65.06-1.1-64.94Z"/>
        <path class="cls-2" d="M247.15,286.18c2.42,9.32,4.67,17.82,6.83,26.33,9.05,35.7,21.48,70.36,32.39,105.48,3.27,10.53,3.43,10.43-7.38,10.41-22.15-.03-44.3,0-66.45.02-7.67,0-7.8-.02-5.58-7.09,7.79-24.74,16.05-49.34,23.39-74.21,5.36-18.19,9.54-36.73,14.28-55.1.45-1.73.46-3.66,2.52-5.85Z"/>
      </g>
      <g>
        <path d="M324.62,91.17h-23.24l-6.08-17.64h-32.29l-6.08,17.64h-22.67L266.5,3.93h25.9l32.23,87.25ZM289.9,57.54l-10.73-31.26-10.74,31.26h21.47Z"/>
        <path d="M357.73,16h-22.32V0h22.32v16ZM357.14,91.17h-21.15V25.37h21.15v65.8Z"/>
      </g>
    </g>
  </g>
</svg>