<?xml version="1.0" encoding="UTF-8"?>
<svg id="Layer_2" xmlns="http://www.w3.org/2000/svg" viewBox="0 0 592.44 715.92">
  <defs>
    <style>
      .cls-1 {
        fill: #fbfae8;
      }

      .cls-2 {
        fill: #0b0b0b;
      }
    </style>
  </defs>
  <g id="Layer_1-2" data-name="Layer_1">
    <g>
      <rect class="cls-1" y="101.28" width="592.44" height="614.64"/>
      <g>
        <path class="cls-2" d="M276.33,589.99c3.68-2.97,1.85-7.07,1.85-10.58.13-85.26.17-170.51.05-255.77-.01-7.78,1.48-14.77,4.75-21.93,9.99-21.9,19.34-44.09,28.79-66.23,2.12-4.97,4.27-8.35,10.86-8.28,6.26.07,8.02,3.3,10.03,7.96,10.02,23.27,20.18,46.47,30.48,69.62,2.37,5.33,3.35,10.65,3.35,16.5-.12,85.89-.1,171.78-.02,257.67,0,3.66-1.31,7.61,1.26,11.03h-17.14c.13-42.14.31-84.29.36-126.43.06-48.18.07-96.35-.04-144.53-.04-19.41-7.43-26.98-25.54-26.86-6,.04-12.01.06-18.01.14-2.47.03-5.31-.52-6.51,2.54-2.88,7.3-7.67,13.96-7.66,22.26.09,90.96.19,181.92.28,272.88h-17.14ZM322.04,246.06c-4.79,10.68-8.75,19.44-12.61,28.24-.63,1.43-.83,3,.88,4.12,1.26.82,22.19.83,23.47.03,1.76-1.1,1.29-2.59.93-4.11-.07-.31-.13-.63-.26-.91-3.84-8.47-7.68-16.94-12.41-27.37Z"/>
        <path class="cls-2" d="M314.41,589.99c.1-50.13.23-100.27.29-150.4.05-39.98.14-79.97-.1-119.95-.03-5.92,1.85-7.68,7.59-7.63,5.62.05,7.77,1.65,7.75,7.62-.22,90.12-.23,180.24-.3,270.36h-15.23Z"/>
        <path class="cls-2" d="M455.29,285.44c5.42-16.51,10.85-33.02,16.27-49.54.88-2.69,1.18-5.94,4.12-7.17,3.58-1.49,7.84-1.86,11.07-.03,4.05,2.3.35,5.8-.52,8.34-7.77,22.8-15.96,45.45-23.77,68.24-1.6,4.68-3.4,7.3-9.09,7.57-6.22.29-7.63-3.54-9.07-7.66-4.69-13.46-9.09-27.02-13.72-40.5-.97-2.82-.76-6.54-5.73-7.75-5.45,15.73-10.94,31.51-16.37,47.31-1.56,4.54-2.61,8.32-9.23,8.69-7.13.4-7.8-4.34-9.24-8.39-7.96-22.38-15.71-44.83-23.22-67.36-.92-2.76-5.84-7.76,1.13-8.83,4.43-.68,10.89-3.69,13.33,4.53,4.15,13.96,8.84,27.76,13.31,41.63.68,2.11,1.24,4.28,2.1,6.32.67,1.58.77,4.07,3.35,3.78,2.31-.26,2.55-2.47,3.14-4.25,5.08-15.35,10.32-30.64,15.17-46.06,1.44-4.57,3.36-6.89,8.59-6.69,5.05.19,7.03,2.25,8.46,6.95,4.31,14.23,9.19,28.29,13.92,42.4.96,2.86,2.22,5.62,3.34,8.43l2.67.04Z"/>
        <path class="cls-2" d="M268.52,311.36c-10.57,2.57-18.44.87-23.31-9.39-2.14-4.51-6.27-8.04-8.6-12.48-4.39-8.36-11.79-7.22-19-6.81-3.74.21-4.21,3.28-4.24,6.28-.05,4.75-.37,9.53.05,14.25.55,6.21-1.01,9.07-8.1,9.28-7.44.22-7.26-3.69-7.24-8.84.11-22.5.28-45-.1-67.49-.11-6.37,2.04-8.62,8.1-8.23,13.56.86,27.26-1.61,40.71,1.54,11.65,2.73,18.36,9.6,19.95,20.06,1.96,12.86-1.86,22.08-13.01,27.87-5.28,2.74-5.33,4.52-2.28,9.1,5.51,8.26,12.86,15.33,17.07,24.87ZM227.7,241.43c-4.13.9-9.13-1.68-13.31,1.44-2.08,1.55-1.49,24.05.41,25.8.65.59,1.62,1.23,2.42,1.19,8.48-.36,17.11,1.28,25.41-1.35,6.02-1.91,9.46-6.23,9.54-12.65.08-6.36-2.9-10.48-9.1-12.83-4.98-1.89-9.95-1.22-15.37-1.61Z"/>
        <path class="cls-2" d="M103.88,269.84c0-11.4.09-22.79-.05-34.19-.05-4.23.35-7.89,5.76-7.66,12.93.54,25.96-1.38,38.78,1.68,20.31,4.85,33.12,22.5,31.62,43.58-1.43,20.11-16.85,36.67-36.86,38.42-11,.96-22.15.23-33.21.62-5.7.2-5.97-3.17-5.95-7.31.05-11.71.02-23.43.02-35.14-.04,0-.08,0-.11,0ZM118.61,269.42c0,3.17,0,6.35,0,9.52,0,21.21,1.89,22.92,23.11,19.01,11.57-2.13,19.49-8.88,22.32-20.66,2.87-11.95-.49-22.34-10.01-29.75-9.66-7.52-22.15-8.79-32.62-4.87-6.68,2.51-1.69,13.18-2.77,20.09-.34,2.17-.05,4.43-.03,6.66Z"/>
      </g>
      <g>
        <path d="M253.56,87.25h-23.24l-6.08-17.64h-32.29l-6.08,17.64h-22.67L195.44,0h25.9l32.23,87.25ZM218.84,53.61l-10.73-31.26-10.74,31.26h21.47Z"/>
        <path d="M350.13,87.25h-27.48l-23.74-31.99h-10.42v31.99h-22.38V0h37.73c5.16,0,9.59.29,13.3.88,3.71.59,7.19,1.86,10.43,3.81,3.28,1.95,5.89,4.48,7.82,7.59s2.9,7,2.9,11.69c0,6.45-1.49,11.7-4.48,15.76-2.99,4.06-7.26,7.44-12.8,10.14l29.12,37.38ZM315.03,26.72c0-2.19-.45-4.06-1.35-5.62-.9-1.56-2.44-2.79-4.63-3.69-1.52-.62-3.3-1-5.33-1.14-2.03-.14-4.39-.21-7.09-.21h-8.14v23.5h6.91c3.59,0,6.6-.18,9.02-.53,2.42-.35,4.45-1.15,6.09-2.4,1.56-1.21,2.7-2.55,3.43-4.01.72-1.46,1.08-3.43,1.08-5.89Z"/>
        <path d="M428.23,16.88h-27.25v70.37h-22.5V16.88h-27.25V0h76.99v16.88Z"/>
      </g>
    </g>
  </g>
</svg>