<?xml version="1.0" encoding="UTF-8"?>
<svg id="Layer_2" xmlns="http://www.w3.org/2000/svg" viewBox="0 0 488.15 690.11">
  <defs>
    <style>
      .cls-1 {
        fill: #33a1d2;
      }

      .cls-2 {
        fill: #156eaf;
      }

      .cls-3 {
        fill: #f2f3f3;
      }
    </style>
  </defs>
  <g id="Layer_1-2" data-name="Layer_1">
    <g>
      <path class="cls-2" d="M482.9,137.05c-79.49.08-158.99.06-238.48.06-53.33.01-106.66.02-160,.01-26.33-.01-52.66-.02-78.99-.16-3.92-.02-6.16.93-5.21,5.3,1.48,6.86,1.57,13.87,2.2,20.82,4.52,50.11,9.08,100.21,13.56,150.31,4.2,46.96,8.28,93.92,12.46,140.88,5.22,58.73,10.53,117.46,15.65,176.2.31,3.56,1.48,5.19,4.93,6.14,63.57,17.55,127.11,35.18,190.64,52.86,3.17.88,6.08.83,9.26-.07,18.9-5.36,37.86-10.56,56.79-15.81,44.79-12.4,89.57-24.81,134.37-37.14,2.79-.77,4-2,4.25-5.06,1.52-18.76,3.3-37.5,4.96-56.24,4.13-46.63,8.22-93.26,12.39-139.88,5.17-57.91,10.42-115.81,15.61-173.71,3.58-39.82,7.04-79.65,10.8-119.45.45-4.76-1.39-5.07-5.19-5.06ZM443.33,181.8c-.97,10.39-1.79,20.8-2.72,31.2-.73,8.25-1.62,16.49-2.3,24.75-1.12,13.7-2.22,27.4-3.78,41.08-1.45,12.67-2.14,25.43-3.26,38.15-1.2,13.53-2.57,27.04-3.76,40.57-.85,9.58-1.39,19.19-2.28,28.76-1.46,15.67-3.18,31.31-4.64,46.98-.91,9.74-1.47,19.51-2.32,29.25-1.57,17.83-3.27,35.64-4.84,53.46-1.12,12.72-2.09,25.44-3.18,38.16-1.31,15.36-2.73,30.71-4,46.07-.26,3.05-2.42,3.71-4.68,4.36-12.44,3.6-24.87,7.25-37.35,10.72-16.16,4.49-32.36,8.79-48.53,13.25-22.09,6.09-44.17,12.19-66.22,18.44-4.1,1.16-5.31.07-5.28-4.11.1-19.33-.03-38.65-.07-57.97-39.93-11.1-79.83-22.27-119.8-33.23-3.94-1.08-5.6-2.56-5.95-6.87-2.37-29.03-4.98-58.05-7.78-87.04-.45-4.72.78-5.95,5.45-5.87,16.98.27,33.97.22,50.95.05,3.67-.04,4.83,1.06,5.08,4.72.87,12.79,2.12,25.55,3.22,38.32.66,7.69.97,8,8.28,9.98,18.48,5,36.95,10.04,55.42,15.06,1.75.47,3.47,1.19,5.36.81-.03-30.42-.07-60.84-.1-91.26,0-2.12.44-4.38-1.82-5.79-28.96-.03-57.92-.07-86.88-.09-15.14-.02-30.29-.04-45.44.05-2.84,0-4.51-.26-4.73-3.87-1.07-17.44-2.34-34.86-3.81-52.27-.34-4.09.92-5.06,4.86-5.05,44.11.12,88.22.08,132.33.06,1.82,0,3.64-.2,5.46-.31.08-20.65.17-41.31.25-61.96l-.11-.04c-.3-.08-.61-.16-.92-.24-6.32-.08-12.65-.22-18.98-.22-41.16-.03-82.32-.08-123.48.07-4.15,0-5.69-.8-5.93-5.33-.87-16.47-2.3-32.91-3.47-49.36-.45-6.33-.38-6.34,5.81-6.34,46.99,0,93.99.01,140.98,0,1.99,0,3.98-.21,5.96-.32-.02-18.82.02-37.64-.13-56.47-.03-3.39.9-4.62,4.49-4.62,63.46.1,126.93.09,190.39.02,3.25-.01,4.56.98,4.25,4.3Z"/>
      <path class="cls-3" d="M397.06,244.3c-1.08,8.91-1.91,17.86-2.69,26.81-2.5,28.5-4.87,57.02-7.41,85.51-3.13,34.97-6.42,69.91-9.56,104.87-2.52,28-4.97,56.01-7.35,84.03-.28,3.24-1.45,4.97-4.75,5.88-40.42,11.1-80.8,22.33-121.18,33.52-39.93-11.1-79.83-22.27-119.8-33.23-3.94-1.08-5.6-2.56-5.95-6.87-2.37-29.03-4.98-58.05-7.78-87.04-.45-4.72.78-5.95,5.45-5.87,16.98.27,33.97.22,50.95.05,3.67-.04,4.83,1.06,5.08,4.72.87,12.79,2.12,25.55,3.22,38.32.66,7.69.97,8,8.28,9.98,18.48,5,36.95,10.04,55.42,15.06,1.75.47,3.47,1.19,5.36.81.47.06.98.28,1.4.16,21.19-5.69,42.35-11.48,63.56-17.05,3.32-.87,3.49-3.06,3.72-5.56.68-7.61,1.32-15.22,1.99-22.83,1.41-15.89,2.8-31.79,4.26-47.67.25-2.73-.11-4.36-3.54-4.34-24.44.17-48.87.18-73.31.24-28.96-.03-57.92-.07-86.88-.09-15.14-.02-30.29-.04-45.44.05-2.84,0-4.51-.26-4.73-3.87-1.07-17.44-2.34-34.86-3.81-52.27-.34-4.09.92-5.06,4.86-5.05,44.11.12,88.22.08,132.33.06,1.82,0,3.64-.2,5.46-.31,6.98.09,13.95.23,20.93.24,19.13.04,38.26.05,57.38.02,2.22,0,4.74.62,4.98-3.09,1.21-18.74,2.53-37.46,3.91-56.19.22-2.9-.87-3.78-3.66-3.76-27.76.27-55.53-.29-83.29.82l-.11-.04c-.2-.47-.49-.62-.92-.24-6.32-.08-12.65-.22-18.98-.22-41.16-.03-82.32-.08-123.48.07-4.15,0-5.69-.8-5.93-5.33-.87-16.47-2.3-32.91-3.47-49.36-.45-6.33-.38-6.34,5.81-6.34,46.99,0,93.99.01,140.98,0,1.99,0,3.98-.21,5.96-.32,1.66.08,3.32.23,4.98.23,47.46,0,94.92.05,142.39-.13,4.47,0,5.9,1.2,5.36,5.63Z"/>
      <path d="M338.73,95.47c-15.47-.22-30-3.53-42.89-12.63-3.03-2.14-3.52-3.71-.82-6.58,3.99-4.24,7.63-8.81,11.25-13.38,1.77-2.24,3.09-2.59,5.66-.83,9.07,6.2,19.23,8.98,30.22,8.51,2.45-.11,5.49.02,5.87-3.28.35-3.08-2.61-3.65-4.73-4.22-6.09-1.66-12.27-2.99-18.4-4.49-4.05-.99-7.95-2.38-11.78-4.05-23.66-10.35-17.68-37.82-3.85-46.74,3.24-2.09,6.56-4.06,10.28-5.01,18.91-4.82,36.92-2.77,53.93,7.14,3.39,1.98,4.45,3.73,1.55,7.2-3.73,4.46-7.07,9.27-10.3,14.11-1.58,2.38-2.83,2.46-5.14,1-6.44-4.07-13.56-6.31-21.15-6.94-1.81-.15-3.67-.14-5.47.07-1.87.22-3.73.86-3.88,3.16-.13,1.97,1.33,3.09,2.95,3.57,3.18.95,6.41,1.74,9.66,2.38,6.7,1.33,13.39,2.7,19.73,5.33,12.72,5.29,18.4,12.91,18.32,24.6-.1,13.17-6.81,21.9-18.54,27.05-7.13,3.13-14.71,4.12-22.46,4.02Z"/>
      <path d="M241.72,95.46c-13.51-.32-27.89-3.61-40.64-12.64-3.09-2.19-3.43-3.77-.82-6.59,3.95-4.27,7.65-8.8,11.25-13.38,1.82-2.32,3.2-2.48,5.71-.77,9.09,6.18,19.24,8.97,30.25,8.49,2.32-.1,5.17-.05,5.67-2.95.58-3.34-2.51-4.04-4.81-4.66-7.07-1.9-14.23-3.43-21.3-5.31-3.04-.81-6.02-1.96-8.87-3.29-9.28-4.33-15.44-11.11-15.62-21.85-.18-10.7,3.74-19.63,13.1-25.38,14.89-9.14,30.88-7.82,46.96-4.18,6.21,1.41,11.87,4.28,17.24,7.71,2.45,1.56,3.1,2.95,1.07,5.52-3.71,4.7-7.24,9.57-10.55,14.57-1.75,2.64-3.16,3.09-5.92,1.28-6.25-4.09-13.3-6.06-20.71-6.73-1.65-.15-3.34-.19-4.98,0-1.99.23-4.18.61-4.4,3.2-.19,2.28,1.61,3.22,3.38,3.75,3.02.89,6.11,1.61,9.2,2.23,8.18,1.63,16.22,3.52,23.82,7.22,21.36,10.38,16.23,37.37,2.3,46.19-9.12,5.78-19.03,7.65-31.33,7.59Z"/>
      <path d="M154.82,95.61c-28.78.17-47.66-14.13-52.87-35.6-5.44-22.46,4.47-44.37,24.73-54.66,19.78-10.05,45-5.59,58.51,10.35q6.9,8.14-2.32,13.36c-4.77,2.71-9.56,5.4-14.2,8.33-2.34,1.47-3.66,1.27-5.15-1.15-2.74-4.44-6.59-7.44-12.02-7.95-8.72-.82-14.8,3-17.78,11.26-1.74,4.84-1.89,9.78-.64,14.74,1.68,6.64,5.49,11.44,12.39,12.95,6.96,1.52,13.25-.33,17.14-6.35,2.87-4.45,5.22-4.07,9.03-1.63,5.18,3.32,10.6,6.28,16.08,9.07,3.29,1.67,3.79,3.12,1.61,6.32-9.72,14.25-23.35,20.73-34.51,20.95Z"/>
      <path class="cls-1" d="M443.33,181.8c-.97,10.39-1.79,20.8-2.72,31.2-.73,8.25-1.62,16.49-2.3,24.75-1.12,13.7-2.22,27.4-3.78,41.08-1.45,12.67-2.14,25.43-3.26,38.15-1.2,13.53-2.57,27.04-3.76,40.57-.85,9.58-1.39,19.19-2.28,28.76-1.46,15.67-3.18,31.31-4.64,46.98-.91,9.74-1.47,19.51-2.32,29.25-1.57,17.83-3.27,35.64-4.84,53.46-1.12,12.72-2.09,25.44-3.18,38.16-1.31,15.36-2.73,30.71-4,46.07-.26,3.05-2.42,3.71-4.68,4.36-12.44,3.6-24.87,7.25-37.35,10.72-16.16,4.49-32.36,8.79-48.53,13.25-22.09,6.09-44.17,12.19-66.22,18.44-4.1,1.16-5.31.07-5.28-4.11.1-19.33-.03-38.65-.07-57.97,40.38-11.19,80.76-22.42,121.18-33.52,3.3-.91,4.47-2.64,4.75-5.88,2.38-28.02,4.83-56.03,7.35-84.03,3.14-34.96,6.43-69.9,9.56-104.87,2.54-28.49,4.91-57.01,7.41-85.51.78-8.95,1.61-17.9,2.69-26.81.54-4.43-.89-5.64-5.36-5.63-47.47.18-94.93.13-142.39.13-1.66,0-3.32-.15-4.98-.23-.02-18.82.02-37.64-.13-56.47-.03-3.39.9-4.62,4.49-4.62,63.46.1,126.93.09,190.39.02,3.25-.01,4.56.98,4.25,4.3Z"/>
      <path class="cls-1" d="M319.28,427.9c-1.46,15.88-2.85,31.78-4.26,47.67-.67,7.61-1.31,15.22-1.99,22.83-.23,2.5-.4,4.69-3.72,5.56-21.21,5.57-42.37,11.36-63.56,17.05-.42.12-.93-.1-1.4-.16-.03-30.42-.07-60.84-.1-91.26,0-2.12.44-4.38-1.82-5.79,24.44-.06,48.87-.07,73.31-.24,3.43-.02,3.79,1.61,3.54,4.34Z"/>
      <path class="cls-1" d="M331.42,303.3c-1.38,18.73-2.7,37.45-3.91,56.19-.24,3.71-2.76,3.09-4.98,3.09-19.12.03-38.25.02-57.38-.02-6.98-.01-13.95-.15-20.93-.24.08-20.65.17-41.31.25-61.96,27.76-1.11,55.53-.55,83.29-.82,2.79-.02,3.88.86,3.66,3.76Z"/>
      <path class="cls-1" d="M244.36,300.32c-.3-.08-.61-.16-.92-.24.43-.38.72-.23.92.24Z"/>
    </g>
  </g>
</svg>