<?xml version="1.0" encoding="UTF-8"?>
<svg id="Layer_2" xmlns="http://www.w3.org/2000/svg" viewBox="0 0 361.2 501.05">
  <defs>
    <style>
      .cls-1 {
        fill: #fff;
      }

      .cls-2 {
        fill: #ff6d00;
      }

      .cls-3 {
        fill: #e34e28;
      }

      .cls-4 {
        fill: #efefef;
      }
    </style>
  </defs>
  <g id="Layer_1-2" data-name="Layer_1">
    <g>
      <g>
        <path class="cls-3" d="M0,90.18l33.03,369.77,147.25,41.1,147.89-41.77,33.03-368.97-361.2-.13ZM67.41,166.14l120.3-.25v45.05l-70.12.59,4.33,44.97,65.79.3v46.71l-108.21-1.39-12.09-135.98ZM87.86,395.55l-6.07-69.67,43.92.13,4.74,34.37,49.49,14.22,7.77-2.2v47.34l-7.38,2-92.47-26.19Z"/>
        <path class="cls-3" d="M284.01,257.23s-3.56,66-6.22,95.66c-1.19,13.25-5.04,43.8-5.04,43.8l-85.04,23.05v-47.34l41.88-11.86,4.78-56.43-46.66-.6v-46.71l96.3.43Z"/>
        <polygon class="cls-3" points="293.15 165.68 288.99 210.1 187.71 210.94 187.71 165.89 293.15 165.68"/>
      </g>
      <g>
        <path d="M96.42,81.42h-21v-35.87h-31v35.87h-21V0h21v29.8h31V0h21v81.42Z"/>
        <path d="M180.9,15.75h-25.43v65.67h-21V15.75h-25.43V0h71.85v15.75Z"/>
        <path d="M278.89,81.42h-20.89V26.9l-15.09,35.38h-14.49l-15.09-35.38v54.52h-19.8V0h24.39l18.32,40.85L254.5,0h24.39v81.42Z"/>
        <path d="M358.4,81.42h-58.73V0h21v65.67h37.73v15.75Z"/>
      </g>
      <polygon class="cls-2" points="328.32 110.38 305.94 405.26 187.71 460.99 187.71 110.38 328.32 110.38"/>
      <polygon class="cls-4" points="187.71 210.94 117.59 211.53 121.92 256.5 187.71 256.8 187.71 303.51 79.5 302.12 67.41 166.14 187.71 165.89 187.71 210.94"/>
      <polygon class="cls-4" points="187.71 372.4 187.71 419.74 180.33 421.74 87.86 395.55 81.79 325.88 125.71 326.01 130.45 360.38 179.94 374.6 187.71 372.4"/>
      <path class="cls-1" d="M284.01,257.23s-3.56,66-6.22,95.66c-1.19,13.25-5.04,43.8-5.04,43.8l-85.04,23.05v-47.34l41.88-11.86,4.78-56.43-46.66-.6v-46.71l96.3.43Z"/>
      <polygon class="cls-1" points="293.15 165.68 288.99 210.1 187.71 210.94 187.71 165.89 293.15 165.68"/>
    </g>
  </g>
</svg>