<?xml version="1.0" encoding="UTF-8"?>
<svg id="Layer_2" xmlns="http://www.w3.org/2000/svg" viewBox="0 0 391.49 549.69">
  <defs>
    <style>
      .cls-1 {
        fill: #fff;
      }

      .cls-2 {
        fill: #d3b72e;
      }

      .cls-3 {
        fill: #d4d4d4;
      }

      .cls-4 {
        fill: #f9d83d;
      }
    </style>
  </defs>
  <g id="Layer_1-2" data-name="Layer_1">
    <g>
      <g>
        <path class="cls-2" d="M386.05,104.37c-63.32.12-126.63.08-189.95.08v-.08c-63.66,0-127.31.04-190.96-.07-3.92-.01-5.52.48-5.07,5.05,3.08,31.15,5.89,62.32,8.74,93.49,5.02,55.02,10.01,110.05,15.01,165.08,4.03,44.42,8.1,88.83,11.97,133.27.29,3.37,1.66,4.45,4.55,5.26,50.36,14.16,100.7,28.38,151.03,42.64,2.81.8,5.42.79,8.22-.02,14.85-4.27,29.73-8.43,44.61-12.64,35.95-10.18,71.9-20.37,107.86-30.53,2.19-.62,3.74-1.18,3.98-4.09,1.81-21.4,3.9-42.78,5.8-64.17,3.46-38.8,6.81-77.61,10.29-116.4,2.83-31.5,5.86-62.98,8.7-94.47,3.52-38.97,6.83-77.95,10.57-116.89.48-5.06-1.1-5.51-5.35-5.51ZM181.1,321.98c0,41.81-.04,83.63.07,125.45.01,4.11-.08,5.78-5.23,4.36-35.2-9.73-70.51-19.09-105.81-28.47-3.1-.82-4.19-2.21-4.14-5.48.17-12.66.21-25.32-.09-37.98-.1-4.25,1.15-4.54,4.81-3.51,21.73,6.1,43.52,11.97,65.28,17.97,5.81,1.6,5.8,1.69,5.81-4.33.09-64.46.24-128.92.15-193.37-.01-5.08,1.27-6.57,6.34-6.32,8.98.43,18.01.44,26.98-.01,5.1-.25,5.95,1.63,5.93,6.23-.17,41.82-.1,83.64-.1,125.46ZM355.89,147.82c-2.25,23.63-4.66,47.25-6.78,70.89-1.58,17.52-2.66,35.1-4.22,52.63-1.78,20-3.97,39.97-5.76,59.97-1.55,17.37-2.69,34.77-4.21,52.14-1.47,16.86-3.24,33.7-4.77,50.57-1.15,12.73-2.12,25.48-3.21,38.22-.24,2.81-.73,5.6-.96,8.41-.18,2.18-1.61,2.48-3.34,2.94-16.09,4.27-32.3,8.12-48.15,13.14-11.6,3.68-23.38,6.67-35.04,10.08-12.47,3.64-25,7.16-37.54,10.56-5.08,1.38-5.95.56-5.95-5.16-.02-45.16,0-90.32,0-135.47v-229.46q0-6.9,6.8-6.92c48.82,0,97.65,0,146.47,0,6.91,0,7.34.43,6.67,7.45Z"/>
        <path class="cls-4" d="M349.22,140.37c-48.82,0-97.65,0-146.47,0q-6.79,0-6.8,6.92v229.46c0,45.15-.01,90.31,0,135.47,0,5.72.87,6.54,5.95,5.16,12.54-3.4,25.07-6.92,37.54-10.56,11.66-3.41,23.44-6.4,35.04-10.08,15.85-5.02,32.06-8.87,48.15-13.14,1.73-.46,3.16-.76,3.34-2.94.23-2.81.72-5.6.96-8.41,1.09-12.74,2.06-25.49,3.21-38.22,1.53-16.87,3.3-33.71,4.77-50.57,1.52-17.37,2.66-34.77,4.21-52.14,1.79-20,3.98-39.97,5.76-59.97,1.56-17.53,2.64-35.11,4.22-52.63,2.12-23.64,4.53-47.26,6.78-70.89.67-7.02.24-7.45-6.67-7.45ZM336.88,193.56c-1.11,13.61-2.1,27.22-2.96,40.85-.22,3.59-2.58,2.75-4.6,2.76-18.98.09-37.97.15-56.95.22-6.17.02-12.33.13-18.49,0-2.55-.06-3.47.65-3.46,3.33.09,20.49.13,40.99-.03,61.49-.03,3.6,1.58,3.61,4.24,3.31,22.82-2.58,45.66-4.98,68.46-7.75,4.26-.52,5.35.19,4.97,4.59-3.03,35.33-5.85,70.69-8.74,106.03-.37,4.48-.88,8.96-1.1,13.44-.13,2.66-.91,3.98-3.8,4.72-32.84,8.45-65.63,17.08-98.42,25.7-2.67.71-3.86.38-3.86-2.85-.01-13-.15-25.99-.53-38.98-.09-3.23,1.25-4.22,4.01-4.94,22.66-5.94,45.28-12.05,67.95-17.94,3.19-.82,4.65-1.93,4.56-5.54-.25-11.11-.09-22.23-.09-33.48-21.98,3.77-44.42,7.59-66.85,11.49-8.11,1.41-8.06,1.51-8.13-6.73-.44-52.46-.86-104.92-1.46-157.37-.05-3.97,1.1-5.05,4.9-5.06,38.98-.07,77.97-.26,116.96-.47,2.34-.01,3.66.24,3.42,3.18Z"/>
        <path class="cls-1" d="M336.88,193.56c-1.11,13.61-2.1,27.22-2.96,40.85-.22,3.59-2.58,2.75-4.6,2.76-18.98.09-37.97.15-56.95.22-6.17.02-12.33.13-18.49,0-2.55-.06-3.47.65-3.46,3.33.09,20.49.13,40.99-.03,61.49-.03,3.6,1.58,3.61,4.24,3.31,22.82-2.58,45.66-4.98,68.46-7.75,4.26-.52,5.35.19,4.97,4.59-3.03,35.33-5.85,70.69-8.74,106.03-.37,4.48-.88,8.96-1.1,13.44-.13,2.66-.91,3.98-3.8,4.72-32.84,8.45-65.63,17.08-98.42,25.7-2.67.71-3.86.38-3.86-2.85-.01-13-.15-25.99-.53-38.98-.09-3.23,1.25-4.22,4.01-4.94,22.66-5.94,45.28-12.05,67.95-17.94,3.19-.82,4.65-1.93,4.56-5.54-.25-11.11-.09-22.23-.09-33.48-21.98,3.77-44.42,7.59-66.85,11.49-8.11,1.41-8.06,1.51-8.13-6.73-.44-52.46-.86-104.92-1.46-157.37-.05-3.97,1.1-5.05,4.9-5.06,38.98-.07,77.97-.26,116.96-.47,2.34-.01,3.66.24,3.42,3.18Z"/>
        <path class="cls-3" d="M181.1,321.98c0,41.82-.04,83.64.07,125.46.01,4.1-.08,5.78-5.23,4.35-35.2-9.73-70.51-19.09-105.81-28.47-3.1-.82-4.19-2.21-4.14-5.48.17-12.66.21-25.32-.09-37.98-.1-4.26,1.15-4.54,4.8-3.51,21.73,6.1,43.53,11.97,65.29,17.97,5.8,1.6,5.8,1.69,5.8-4.33.09-64.46.24-128.91.15-193.37,0-5.08,1.27-6.56,6.35-6.32,8.98.43,18,.44,26.98,0,5.1-.25,5.94,1.63,5.92,6.23-.17,41.82-.1,83.64-.1,125.46Z"/>
      </g>
      <g>
        <path d="M146.51,63.22c0,3.83-.68,7.41-2.05,10.75-1.37,3.34-3.4,6.16-6.09,8.47-2.85,2.46-6.29,4.37-10.31,5.71-4.02,1.35-9,2.02-14.94,2.02-4.02,0-7.81-.15-11.37-.44-3.55-.29-6.68-.71-9.38-1.26v-17.64h2.11c1.88.7,3.83,1.36,5.86,1.96,2.03.61,4.63.91,7.79.91,4.1,0,7.26-.55,9.46-1.64,2.21-1.09,3.78-2.62,4.72-4.58.9-1.92,1.41-4.02,1.52-6.3.12-2.29.18-5.21.18-8.77V17.64h-19.98V1.58h42.48v61.64Z"/>
        <path d="M237.51,61.41c0,8.59-3.64,15.58-10.93,20.95-7.29,5.37-17.18,8.06-29.68,8.06-7.23,0-13.53-.64-18.9-1.9-5.37-1.27-10.4-2.88-15.09-4.83v-20.92h2.46c4.65,3.71,9.85,6.56,15.62,8.55,5.76,1.99,11.3,2.99,16.61,2.99,1.37,0,3.16-.12,5.39-.35s4.04-.62,5.45-1.17c1.72-.7,3.13-1.58,4.25-2.64s1.67-2.62,1.67-4.69c0-1.91-.81-3.56-2.43-4.95-1.62-1.39-3.99-2.45-7.12-3.19-3.28-.78-6.75-1.51-10.4-2.2-3.65-.68-7.08-1.55-10.28-2.61-7.34-2.38-12.63-5.62-15.85-9.7-3.22-4.08-4.83-9.15-4.83-15.21,0-8.12,3.64-14.76,10.93-19.89,7.29-5.14,16.65-7.71,28.1-7.71,5.74,0,11.42.56,17.02,1.67,5.6,1.11,10.46,2.51,14.56,4.19v20.1h-2.4c-3.52-2.81-7.82-5.17-12.92-7.06-5.1-1.89-10.3-2.84-15.62-2.84-1.88,0-3.74.13-5.6.38-1.86.25-3.64.73-5.36,1.44-1.52.59-2.83,1.47-3.93,2.67-1.09,1.19-1.64,2.55-1.64,4.07,0,2.31.88,4.07,2.64,5.3s5.08,2.35,9.96,3.37c3.2.67,6.28,1.31,9.23,1.93,2.95.62,6.12,1.49,9.52,2.58,6.68,2.19,11.61,5.17,14.79,8.94,3.18,3.77,4.78,8.66,4.78,14.68Z"/>
        <path d="M322.76,61.41c0,8.59-3.64,15.58-10.93,20.95-7.29,5.37-17.18,8.06-29.68,8.06-7.23,0-13.53-.64-18.9-1.9-5.37-1.27-10.4-2.88-15.09-4.83v-20.92h2.46c4.65,3.71,9.85,6.56,15.62,8.55,5.76,1.99,11.3,2.99,16.61,2.99,1.37,0,3.16-.12,5.39-.35s4.04-.62,5.45-1.17c1.72-.7,3.13-1.58,4.25-2.64s1.67-2.62,1.67-4.69c0-1.91-.81-3.56-2.43-4.95-1.62-1.39-3.99-2.45-7.12-3.19-3.28-.78-6.75-1.51-10.4-2.2-3.65-.68-7.08-1.55-10.28-2.61-7.34-2.38-12.63-5.62-15.85-9.7-3.22-4.08-4.83-9.15-4.83-15.21,0-8.12,3.64-14.76,10.93-19.89,7.29-5.14,16.65-7.71,28.1-7.71,5.74,0,11.42.56,17.02,1.67,5.6,1.11,10.46,2.51,14.56,4.19v20.1h-2.4c-3.52-2.81-7.82-5.17-12.92-7.06-5.1-1.89-10.3-2.84-15.62-2.84-1.88,0-3.74.13-5.6.38-1.86.25-3.64.73-5.36,1.44-1.52.59-2.83,1.47-3.93,2.67-1.09,1.19-1.64,2.55-1.64,4.07,0,2.31.88,4.07,2.64,5.3s5.08,2.35,9.96,3.37c3.2.67,6.28,1.31,9.23,1.93,2.95.62,6.12,1.49,9.52,2.58,6.68,2.19,11.61,5.17,14.79,8.94,3.18,3.77,4.78,8.66,4.78,14.68Z"/>
      </g>
    </g>
  </g>
</svg>