<?xml version="1.0" encoding="UTF-8"?>
<svg id="Layer_2" xmlns="http://www.w3.org/2000/svg" viewBox="0 0 593 719.47">
  <defs>
    <style>
      .cls-1 {
        fill: #fbfae8;
      }

      .cls-2 {
        fill: #2f2d2e;
      }
    </style>
  </defs>
  <g id="Layer_1-2" data-name="Layer_1">
    <g>
      <rect class="cls-1" y="104.47" width="593" height="615"/>
      <g>
        <path class="cls-2" d="M142.85,465.31c-7.42-14.03-17.68-26.08-26.93-38.84-4.25-5.85-7.84-12.11-7.5-19.76.05-1.09-.07-2.34.41-3.24,2.08-3.87,1.28-7.94,1.17-11.99-.2-7.67.42-15.18,4.68-21.9.27-.42.46-.92.81-1.25,1-.96,1.5-3.25,3.23-2.41,1.71.83-.18,2.45-.13,3.75.01.38-.27.77-.27,1.16-.01.73-.5,1.74.53,2.04.9.26.95-.82,1.34-1.33,9.27-12.04,11.4-26.3,12.76-40.83.93-9.95,2.99-19.67,7.26-28.77,2.33-4.97,5.4-9.52,9-13.69.49-.57.96-1.48,1.9-1.05,1.01.46.41,1.36.35,2.11-.49,5.44-.75,10.87,1.29,16.13-.42-8.24-.18-16.42,2.85-24.2,7.14-18.34,20.44-30.06,39.12-35.78,2.32-.71,3.87-1.67,5.18-3.88,4.82-8.19,11.86-14.47,18.87-20.71,6.88-6.11,14.36-11.42,22.27-16.13.43-.26.85-.52,1.29-.76.85-.46,1.66-.63,2.4.26.99,1.19-.25,1.65-.81,2.08-1.81,1.38-3.31,2.97-4.8,5.83,4.38-3.25,7.82-6.28,11.63-8.84,20.68-13.92,43.53-20.39,68.34-20.38,8.09,0,16.18.11,24.26-.14,12.61-.38,24.57-3.03,34.63-11.28,6.66-5.46,11.05-12.26,11.87-21.05.08-.85-.16-2.04,1.09-2.12,1.06-.07,1.41.9,1.66,1.81,3.73,13.32,3.95,26.52-1.14,39.6-.29.75-1.22,1.75-.21,2.73,2.76-2.74,3.85-4.75,6.19-11.17.31-.85.18-2.25,1.66-2.04,1.27.18,1.2,1.38,1.45,2.34,1.82,6.99-.54,13.46-2.58,19.91-1.72,5.44-4.81,10.29-7.3,15.39-3.28,6.69-4.61,14-7.03,20.96-5.98,17.19-17.69,29.58-32.93,38.96-4.35,2.68-8.94,4.86-13.65,6.79-.81.33-1.84.46-1.95,1.59-.54,5.49-4.67,7.86-8.88,10.02-7.14,3.66-14.85,4.38-22.73,3.93-7.29-.42-14.47-1.74-21.63-3.05-2.56-.47-3.66.19-4.29,2.82-2.49,10.34-8.42,18.84-14.87,27.05-7.57,9.64-15.67,18.9-21.41,29.87-7.7,14.72-12.07,30.35-13.24,46.89-.05.74-.35,1.57.25,2.24.52.1.74-.2.89-.59.31-.83.45-1.95,1.63-1.81.98.12,1.31,1.11,1.66,1.94,2.79,6.6,2.42,13.23.15,19.88-3.12,9.15-9.27,15.93-16.81,21.64-8.21,6.23-17.45,10.84-26.05,16.45-3.22,2.11-6.35,4.35-9.19,7.06,3.12-1.97,6.2-4.02,9.37-5.91,5.26-3.14,10.78-5.64,17-6.17.99-.08,2-.1,2.99-.04.76.05,1.79-.1,2.03.87.26,1.04-.78,1.23-1.45,1.58-2.03,1.06-4.1,2.06-6.12,3.14-21.08,11.31-37.94,27-49.71,47.96-.66,1.17-1.06,2.31-1.12,3.65-1.11,23.74-1.53,47.5-1.27,71.27.06,5.51.81,11,4.66,15.44,1.08,1.25.53,2.43,0,3.62-2.28,5.11-3.94,10.44-5.6,15.77-.25.8-.87,1.82-.05,2.51.92.78,1.63-.26,2.29-.74,1.48-1.07,3.14-1.7,4.85-2.27,11.84-3.95,19.23-11.99,21.98-24.19.83-3.67-.18-7.14-1.76-10.44-2.08-4.35-3.61-8.85-4.14-13.68-.89-8.13,1.86-14.66,8.37-19.65,6.25-4.79,13.09-8.81,18.76-14.35,6.41-6.27,11.16-13.31,10.34-22.86-.08-.99.22-1.79,1.19-2.18.94-.38,1.77-.11,2.45.61.81.85.71,1.7.19,2.72-1.74,3.42-.27,5.74,3.67,5.69,5.02-.06,8.37-2.91,10.71-7.03,2.22-3.91,2.81-8.27,2.96-12.7.07-2.09-.09-4.22.69-6.22.41-1.05,1-2.14,2.4-1.56,1.29.54,1.32,1.5.67,2.7-1.04,1.9-1.49,4.02-.82,6.09,2.43,7.53-.2,13.81-4.41,19.89-6.85,9.89-15.24,18.15-25.24,24.83-4.9,3.28-9.73,6.68-12.82,11.93-.86,1.47-1.71,2.95-1.74,4.71-.01.89.02,1.87.88,2.42.98.63,1.91.26,2.77-.36,2.09-1.53,4.18-3.06,6.27-4.6,1.05-.77,2.15-1.54,3.48-1.65,1.62-.14,3.2.26,3.27,2.17.08,1.9-1.48,2.05-2.99,2.02-5.61-.1-9.06,2.22-10.64,7.19-.67,2.1-1.02,4.26-1.06,6.48-.33,21.12-11.76,34.61-30.06,43.1-8.33,3.87-9.08,4.11-16.74,13.89-.36-3.37-.75-6.39-.99-9.42-2.56-31.1-2.46-62.24-1.03-93.38.4-8.67,1.7-17.36,1.33-25.99-.42-9.94-2.13-19.85-6.44-29.05-4.91-10.48-10.25-20.67-18.91-28.68-2.53-2.34-5.3-4.36-8.96-5.99,2.11-.93,3.44-.05,4.65.48,10.14,4.43,18.33,11.19,24.05,20.74.56.93,1.11,1.27,2.05,1.32-.03.28-.05.55-.06.82,0,.04.08.08.12.12-.02-.3-.04-.59-.06-.89ZM217.57,284.01c-.43-.03-.65.14-.6.6-3.54,3-6.11,6.8-8.74,10.55-12.8,18.27-22.13,38.25-29.38,59.29-5.27,15.27-9.69,30.77-13.36,46.5-1.17,5.01-2.17,10.06-3.25,15.09,1.42-1.31,1.57-3.02,1.92-4.62,4.8-22.11,10.77-43.88,18.91-65.02,6.65-17.27,14.71-33.78,25.03-49.18,2.86-4.27,6.4-8.08,8.81-12.66.48.09.69-.11.6-.6.18-.11.37-.21.55-.32-.06-.07-.12-.14-.18-.21-.11.2-.21.39-.32.59ZM216.37,364.3c.6-.2,1.47-.13,1.23-1.19.35.32.72.25,1.09.06,6.85-3.52,13.22-7.78,19-12.87.23-.2.65-.55-.02-1.1-5.16,3.4-10.39,6.8-15.56,10.29-1.6,1.08-3.52,1.8-4.58,3.58-.77.09-1.64.1-1.14,1.3-.37-.52-.76-.33-1.13-.02-.03.02.1.35.21.39.41.14.7-.06.89-.44ZM390.66,180.29c-1.05.4-1.56,1.28-1.97,2.25-3.22,2.46-6.23,5.22-9.83,7.17-10.7,5.81-22.1,9.95-33.54,13.97-11.72,4.12-23.65,7.66-35.19,12.29-4.28,1.72-8.19,4.1-11.79,7.33,1.33.7,2.14.18,2.96-.11,8.75-3.05,17.5-6.1,26.24-9.18,16.38-5.77,32.9-11.19,48.03-19.96,5.09-2.95,10.26-5.89,13.71-10.93.95-.56,1.52-1.41,1.77-2.47.2-.26.61-.56.2-.85-.48-.34-.47.21-.6.48ZM125.83,451.18c.12-1.09-.44-1.38-1.51-1.29.48.63.66,1.4,1.58,1.23,2.81,4.62,6.63,8.52,9.43,13.17.53.88.27,2.66,2.03,2.8.39-1.06.15-1.88-.23-2.87-1.63-4.29-4.63-7.53-7.84-10.61-1-.96-1.66-2.56-3.46-2.44ZM254.72,316.36c-.71-.3-1.1.27-1.57.59-5.67,3.87-11.53,7.44-17.8,10.25-7.41,3.32-14.53,7.17-21.6,11.14-.81.46-1.67.8-2.14,2.21,2.84-1.01,5.14-2.17,7.49-3.23,9.2-4.15,18.1-8.87,26.63-14.23,3.14-1.97,6.72-3.52,8.93-6.79,2.35-.4,3.57-2.21,5.35-3.96-2.4.4-3.23,2.79-5.37,2.82.41-2.03,2.18-2.82,3.63-3.79,5.51-3.68,10.02-8.42,14.33-13.38.6-.69,1.81-1.65,1-2.47-1-1.01-1.89.18-2.68.96-4.74,4.72-9.76,9.1-15.71,12.22-12,6.29-24.04,12.49-35.52,19.69-3.2,2.01-6.34,4.09-10.18,6.58,2.57.54,3.81-.42,5.16-.91,13.65-4.94,27.22-10.07,38.99-18.89.32-.24.67-.42,1.05-.08,0,.42,0,.84,0,1.27ZM221.69,433.78c1.93-2.86,4-5.63,5.77-8.59,2.91-4.86,4.16-10.58,3.38-14.37-.88.8-1.02,1.9-1.3,2.93-2.13,8-6.04,14.94-12.2,20.54-4.83,4.39-10.27,7.9-15.91,11.12-6.42,3.66-12.78,7.4-18.57,12.03-1.23.99-2.72,1.85-3.13,3.89,2.49-.33,3.78-2.03,5.41-3.06,8.08-5.08,16.9-8.92,24.56-14.68,3.47-2.61,6.83-5.37,10.25-8.07.82,1.35-.6,1.69-1.17,2.17-3.12,2.61-6.26,5.21-9.55,7.59-4.56,3.3-9.25,6.41-13.88,9.61.15.21.31.41.46.62,10.33-6.14,21.01-11.81,28.7-21.92-1.5-.66-1.85,1.17-2.82.2ZM201.95,439.73c.83.48,1.54.04,2.24-.33,7.83-4.24,14.14-10.09,18.71-17.76,3.02-5.07,3.15-10.57,2.24-16.38-7.61,14.38-18.42,25.91-31.48,35.57,2.02,1.52,2.86-.76,4.2-.06,1.49.77,2.26-1.02,3.54-1.04.14.13.28.26.42.4.05-.13.1-.26.15-.39ZM183.96,441.54c2.18-.59,4.56-.35,6.59-1.59,14.12-8.63,24.97-20.35,32.56-35.02,1.9-3.67,3.81-7.47,3.69-11.9-1.12.37-1.37,1.31-1.86,2.03-3.84,5.7-7.66,11.41-12.06,16.71-8.31,10-18.11,18.5-27.38,27.55-.66.64-1.88.95-1.48,2.29-.51-.21-.93-.11-1.08.45-.04.16.24.59.35.58.7-.03,1.01-.38.67-1.09ZM229.54,217.5c-5.3,3.65-9.36,8.59-13.77,13.18-.61-1.39.69-1.86,1.28-2.67.57-.79,1.55-1.44,1.19-2.42-3.59,3.4-7.37,6.59-10.69,10.21-6.43,7.01-9.9,15.26-10.51,24.93-.43,6.81.9,13.29,1.89,19.87.09.6.22,1.32.98,1.25.75-.06.76-.81.81-1.4.33-3.98.57-7.97,1-11.93.65-5.88.85-11.9,2.3-17.58,1.87-7.29,5.88-13.74,10.24-19.89.31-.43.91-.8,1.57-.43-12.18,13.59-13.8,36.51-12.82,49.07.77-5.34,1.54-10.68,2.31-16.02,1.49,3.55-.77,7.05.59,10.83,4.52-21.22,13.39-40.09,27.04-56.65-.61-.38-1.27.48-1.68-.33.56-2.19,3.91-2.09,4.15-5.07-2.3,1.69-4.34,3.07-5.89,5.04ZM246.92,219.28c-.34,1.78-1.75,2.86-2.8,4.15-3.92,4.79-7.63,9.71-10.39,15.29-2.67,5.4-4.23,11.07-3.83,17.31,5.76-15.45,14.44-29.05,25.56-41.06,11.35-12.26,24.98-21.18,40.66-27.04-5.63.63-11.08,1.81-16.22,4.03-8.17,3.53-15,9.03-21.26,15.25-4.01,3.98-7.87,8.1-11.8,12.16.82-2.54,2.93-4.12,4.6-5.98,5.56-6.23,11.38-12.21,18.14-17.3-1.48.34-2.83.9-4.13,1.55-6.24,3.14-12.83,6.01-17.64,11.1-18.07,19.12-28.52,42.17-33.73,67.75-.17.85-.52,1.88.56,2.9,1.77-3.54,1.72-7.36,3.18-10.66,5.5-12.41,11.06-24.81,18.17-36.4,2.97-4.84,6.4-9.42,10.92-13.03ZM186.45,423.64c1.67-.23,2.87-1.26,4.01-2.37,7.21-6.96,15.03-13.23,21.76-20.75,7.66-8.56,14.66-17.42,19.11-28.09.17-.42.83-1.05.19-1.5-.5-.36-1.13-.16-1.62.31-4.21,4.09-9.03,7.4-13.69,10.93-13.25,10.04-23.08,23.1-32.33,36.67-.28.42-.53.84-.08,1.31.18-.09.35-.19.54-.26.88-.35,1.45-1.71,2.78-.53,1.38,1.23.23,1.81-.35,2.62-.37.52-.39,1.11-.28,1.71-.26,0-.51,0-.77,0,.03.11.05.21.08.32.21-.13.43-.26.64-.39ZM148.6,332.55c.2.16.49.28.59.49,3.59,7.31,7.17,14.63,10.74,21.96.42.86.53,1.97,2.15,2.11-.91-6.83-3.3-13.23-4.94-20.68,2.93,3.19,3.03,7.01,5.55,9.58,1.25-1.93-.64-3.54.33-5.39,1.45,2.13,1.79,4.68,3.67,6.38-2.84-14.51-11.59-26.61-16.39-40.34-.71,7.28,2.36,13.9,3.37,20.85-5.87-10.89-5.03-22.7-4.43-34.48-4.35,4.33-3.94,10.12-5.55,15.9-.71-3.05.2-5.35-.04-7.79-1.84,1.45-3.72,5.8-3.97,8.91-.48,6.11.71,12.04,2.27,17.86,2.99,11.17,7.51,21.8,11.73,32.54.56,1.43,1.53,2.7,2.55,4.47.87-2.69-.69-4.57-.46-7.16.99,2.13,1.45,3.96,2.94,5.25.81-1.32.32-2.44.09-3.6-1.2-5.94-4.18-11.16-6.54-16.64-1.43-3.32-3.58-6.43-3.6-10.26l-.07.05ZM261.91,217.42c.08,1.29-.95,1.95-1.68,2.7-6.38,6.52-11.61,13.88-15.97,21.87-.39.72-1.42,1.65-.49,2.33,1.17.87,1.45-.69,1.83-1.27,5.74-8.87,13.51-15.87,21.09-23.04,1.44-1.37,3.09-2.62,5.17-3.07-1.34,1.41-2.82,2.65-4.27,3.91-1.43,1.24-2.86,2.47-4.25,3.76-1.38,1.27-2.86,2.48-4.11,4.46.84-.15,1.17-.12,1.39-.26.41-.25.77-.6,1.14-.91,7.84-6.51,15.68-12.95,25.07-17.29,12.18-5.63,24.74-10,37.79-13.11,11.07-2.63,22.43-3.76,33.4-6.83,10.7-3,20.35-7.67,26.99-17.07,2.47-3.49,4.28-7.26,4.84-11.57-.85-.17-.92.34-1.09.63-5.11,9.16-13.04,14.81-22.62,18.59-7.37,2.9-14.97,4.89-22.65,6.64-5.92,1.35-11.84,2.67-17.76,4.01-.06-.22-.12-.44-.18-.66,6.16-1.67,12.33-3.34,18.49-5.01-7.39-.39-14.64-.51-21.88-.33-3.37.08-6.87.19-10.04,1.45-17.23,6.84-33.54,15.26-47.23,28.06-.72.67-1.27,1.59-2.45,1.48,8.07-8.68,17.77-15.17,28.09-20.81,3.82-2.09,7.81-3.89,11.9-5.91-1.31-.89-2.18-.25-3.08.03-22.99,7.1-40.97,20.9-54.31,40.82-3.54,5.28-7.68,10.44-6.81,17.69,1.4-1.06,1.94-2.61,2.67-3.94,5.62-10.19,12.29-19.57,21.03-27.36ZM249.17,280.19c6.21-.93,12.44-1.18,18.52-2.63,8.71-2.08,17.45-4.02,26.19-5.94,17.43-3.82,34.78-7.89,51.58-14.02,9.73-3.55,19.14-7.64,27.82-13.45,8.68-5.81,10.54-14.9,12.85-23.92-.91-.34-1.26.18-1.68.61-3.64,3.72-7.73,6.92-11.93,9.95-17.57,12.73-36.68,22.47-57.47,28.77-15.25,4.62-30.96,7.73-45.91,13.39-4.17,1.58-8.39,2.93-12.67,4.15-2.51.71-5.2,1.24-7.3,3.08ZM392.72,164.27c-5.14,12.04-9.89,18.46-18.19,23.32-6.18,3.62-12.38,7.28-20.16,7-3.98-.14-8.01,1.39-12.04,2.04-19.28,3.11-38.11,7.51-55.68,16.55-8.94,4.6-16.03,11.06-22.35,18.61-.43.51-1.2,1.13-.63,1.78.81.92,1.36-.18,1.95-.57,1.82-1.21,3.58-2.54,5.45-3.68,18.55-11.29,37.92-20.8,58.84-26.91,5-1.46,10-2.97,15.26-4.53-.36,1.17-.98,1.22-1.54,1.37-9.79,2.65-19.33,6.06-28.79,9.7-15.44,5.94-30.28,13.03-43.49,23.16-.88.67-1.97,1.2-2.18,2.47.74.35,1.1-.06,1.5-.33,8.98-6.2,18.31-11.72,28.68-15.36,8.25-2.9,16.34-6.27,24.64-8.98,16.56-5.41,33.07-10.92,48.86-18.34,5.97-2.8,11.5-6.22,15.94-11.27,4-4.55,5.14-9.65,3.93-16.03ZM378.96,241.14c-2.35,1.96-4.51,4.25-7.09,5.83-9.43,5.76-19.67,9.86-30.08,13.41-17.85,6.09-36.23,10.2-54.64,14.15-2.6.56-5.17,1.3-7.75,1.96.86.47,1.64.56,2.4.46,8.8-1.25,17.67-1.57,26.53-2.1,4.77-.28,9.61.51,14.33-.75,4.24-1.13,8.67-.84,12.97-1.96,15.43-4.03,28.76-11.42,39.55-23.29,1.99-2.19,3.19-4.67,3.79-7.69ZM265.48,282.47c.03.2.07.4.1.61,2.93-.21,5.86-.36,8.78-.65,14.33-1.43,28.68-1.77,43.06-.74,6.59.47,13.38.76,19.57-1.6,9.46-3.59,18-9.02,25.6-15.77,1.24-1.1,2.66-2.16,3.08-4.19-2.39.33-3.8,1.95-5.47,3.03-13.14,8.5-27.87,11.52-43.16,12.33-14.26.75-28.49,1.56-42.44,4.91-3.03.73-6.08,1.38-9.12,2.07ZM388.9,186.48c-7.58,7.08-16.98,11.06-26.1,15.44-12.5,5.99-25.71,10.19-38.7,14.94-3.46,1.27-6.85,2.8-9.4,5.71,3.72-.33,6.97-2.34,10.75-2.67-2.69,2.64-6.61,2.79-9.49,5.22,1.54.61,2.78.27,4.02-.05,4.06-1.03,8.13-1.97,12.17-3.09,17.34-4.78,33.28-12.38,47.24-23.85,3.91-3.21,7.29-6.93,9.5-11.66ZM396.83,195.55c-1.81,3.36-3.56,6.68-5.82,9.7-8.08,10.77-18.86,17.88-31.13,22.97-13.61,5.65-27.8,9.65-41.6,14.75-4.3,1.59-8.64,3.07-12.97,4.61,2.66.52,4.98-.37,7.39-.88-4.59,2.93-10.19,3.18-14.99,5.73.98.31,1.95.43,2.87.28,4.51-.73,9.1-1.22,13.5-2.38,14.05-3.73,27.66-8.68,40.6-15.4,7.05-3.66,14.11-7.29,20.68-11.79,6.87-4.71,13.38-9.84,17.71-17.12,1.9-3.2,4.06-6.42,3.76-10.45ZM370.54,230.26c-1.5-.75-2.43.04-3.26.55-6.8,4.26-14.08,7.56-21.42,10.73-16.8,7.25-34.29,12.43-51.91,17.22-10.48,2.84-21.17,4.98-31.18,9.38-.82.36-1.98.39-2.15,1.72,1.2.36,2.26-.13,3.26-.44,3.68-1.14,7.34-2.3,11.09-3.22,3.06-.75,6.13-.22,9.11-.73,6.39-1.08,12.76-2.33,19.05-3.87,17.33-4.22,33.72-10.87,49.2-19.72,6.2-3.55,12.29-7.26,18.2-11.64ZM201.26,353.91c4.2-1.01,7.46-3.2,11.1-4.41,13.16-4.4,24.93-11.43,36.22-19.33,5.73-4.01,10.61-9.08,16.09-13.39,3.37-2.65,5.05-6.21,6.97-9.74.2-.37.38-.58.05-.99-.46-.55-.72-.16-1.17,0-1.63.57-2.1,2.24-3.24,3.28-5.21,4.75-10.67,9.09-16.56,13.02-6.08,4.06-12.34,7.71-18.95,10.74-9.57,4.39-18.43,9.98-27.31,15.56-.39.25-1.81.67-.9,1.3,1.63,1.14.31,1.23-.34,1.58-.79.44-1.56.86-1.95,2.37ZM173.12,316.14c1.45,3.89,1.94,8.26,3.8,12.42,1.33-1.3.85-2.55.83-3.65-.22-8.76-2.67-17.16-4.37-25.67-1.29-6.46-3.11-12.82-1.59-19.49,2.05-9.03,5.91-17.23,11.47-24.64.33-.44,1.05-.92.53-1.5-.56-.61-1.26-.34-1.82.22-.34.34-.76.6-1.06.97-7.29,8.91-12.82,18.8-14.84,30.18-2.54,14.27-.61,28.18,5.12,41.53.26.6.23,1.55,1.22,1.36.94-.18.7-1.09.71-1.72.03-3.37.02-6.74.02-10.02ZM253.95,332.74c-8.06,4.35-15.36,8.59-22.92,12.3-10.41,5.11-19.96,11.52-29.21,18.43-.69.52-2.12,1.2-1.73,1.81,1.3,1.99-.66,2.22-1.38,3.04-.91,1.04-2.06,1.88-2.97,2.93-.48.55-1.85,1.38-.58,2.04.81.42,1.53,1.78,3.23.62,13.43-9.16,27.09-17.97,40.46-27.21,5.42-3.74,11.04-7.44,15.1-13.96ZM154.39,387.62c.63-.96.49-1.78.39-2.55-1.24-9.47-4-18.42-8.53-26.88-3.45-6.44-6.59-13.06-9.01-19.99-.55-1.58-.52-3.41-1.96-5.13-1.76,7.7-2.1,14.92.44,22.05,4.02,11.34,10.15,21.71,15.06,32.65.16.35.51.61,1.34.35.22-2.03-1.06-4.16-.54-6.63,1.14,2.11,1.13,4.34,2.81,6.14ZM181.58,322.68c.95-7.68,2.13-14.91,1.12-22.18-1.81-12.99-2.53-25.96-.52-38.99.08-.53.97-1.37-.12-1.76-.91-.32-1.14.62-1.45,1.18-3.62,6.52-7.11,13.06-7.79,20.72-.7,8.02.77,15.86,3.39,23.2,1.64,4.59,2.72,9.15,3.65,13.84.25,1.24.27,2.55,1.71,4ZM270.01,295.4c-2.29-.59-4.01-.04-5.8.44-8.88,2.37-17.1,6.4-25.4,10.19-4.15,1.89-8.01,4.42-11.95,6.75-.56.33-2.18,1.35-1.06,1.72,2.85.95-.11,1.28-.12,1.29-2.14,1.36-4.62,2.25-6.09,4.59,3.07-.57,5.73-2.87,9.04-1.62,8.78-4.46,18.59-6.54,27.04-11.79,5.16-3.2,9.93-6.82,14.36-11.58ZM161.63,275.23c-1.6.2-1.67,1.13-2.01,1.78-2.45,4.75-3.91,9.83-4.57,15.09-1.11,8.83-.98,17.77,3.16,25.75,4.14,7.98,8.13,15.96,11.28,24.37.47,1.26.84,2.63,2.15,3.31.8-.49.67-1.15.56-1.68-1.29-6.03-2.35-12.09-5.03-17.76-6.42-13.59-8.69-27.86-6.56-42.78.38-2.63.67-5.28,1.02-8.09ZM259.82,292.47c.59,0,1.18.07,1.75-.01,7.19-1.03,14.29-.37,21.41.89,8.63,1.53,17.25,3.27,26.09,2.98,6.69-.22,13.03-1.63,18.75-5.27,1.7-1.09,3.23-2.35,3.96-4.32.37-1.02.32-2.57-.81-2.35-3.39.68-7.2-.37-10.16,1.6-4.61,3.07-9.82,4.13-15.02,4.94-7.11,1.11-14.28.35-21.41-.57-8.27-1.06-16.46-.31-24.56,2.1ZM190.85,401.68c1.13-.27,1.7-.89,2.31-1.59,4.33-4.9,9.47-8.93,14.52-13.02,7.91-6.41,16.32-12.2,23.64-19.34,1.08-1.06,2.24-2.88,2.71-4.52-18.81,9.35-35.71,20.44-47.1,38.87,2.32-.21,2.87-2.5,4.58-2.94.48,1.13-.75,1.47-.66,2.53ZM114.32,376.91c-1.17,5.73-.99,11.41.8,16.95,4.59,14.25,13.68,25.8,22.63,37.43.3.39.61.8,1.28.65.77-1.04.09-2.05-.21-3.03-2.86-9.18-6.89-17.77-12.47-25.67-4.48-6.34-8.58-12.93-10.46-20.64-.46-1.9-.28-3.95-1.57-5.7ZM155.92,453.11c-7.62,51.48-9.2,102.97-7.85,154.57.72-2.23,1.06-4.51,3.28-5.85.73-.44.83-1.01.47-1.77-3.24-6.72-2.88-14.01-3.04-21.14-.4-18.46.1-36.91,1.52-55.34,1.54-19.98,2.76-39.99,5.04-59.92.39-3.43,1.39-6.86.58-10.55ZM130.93,357.83c-1.11,4.19-.89,8.21-.13,12.21,1.8,9.39,7.23,16.94,12.48,24.57.39.57.9,1.33,1.64.81.67-.47.21-1.27,0-1.93-2.84-8.77-5.52-17.59-10.14-25.65-.4-.69-1.3-1.7-.1-2.27,1.1-.53,1.18.89,1.45,1.44,2.82,5.84,5.57,11.71,8.27,17.61.38.83.5,1.71,2,1.69-2.5-12.63-10.83-22.86-13.51-35.29-1.93,3.58.27,6.97-.51,10.48-.49-1.22-.97-2.45-1.46-3.67ZM186.7,430.53c2.16-2.13,5.48-.7,7.63-2.81,3.47-3.42,7.51-6.19,10.9-9.72,7.8-8.12,14.53-17.05,20.12-26.8,1.36-2.37,3.62-4.65,2.77-8.79-11.37,18.75-28.41,31.55-41.42,48.13ZM250.7,290.33c1.48,1.15,2.41.62,3.33.49,5.56-.77,11.09-1.8,16.67-2.23,5.57-.43,11.13.51,16.69,1.1,7.62.8,15.27,1.4,22.8-.67,2.76-.76,5.61-1.47,8.49-3.85-23.25-1.37-45.61-1.78-67.98,5.17ZM338.75,222.98c.77.31,1.06.55,1.28.5,1.92-.49,3.83-1.05,5.74-1.57.54-.15,1.5-.75,1.56-.31.33,2.62,1.88,1.3,2.92.93,12.55-4.52,23.51-11.55,32.89-21.05,2.39-2.42,4.51-7.2,4.11-9.33-.27.14-.57.21-.75.4-10.25,10.74-22.47,18.56-36.02,24.46-3.86,1.68-7.78,3.3-11.72,5.97ZM190.8,302.93c-.02-4.83.09-9.6-.07-14.36-.05-1.59-.22-3.19-.48-4.76-1.87-11.22-.96-22.03,4.51-32.24.68-1.28,2.84-3.02,1.47-3.94-1.26-.84-2.77,1.5-4,2.69-.14.14-.24.32-.38.46-2.75,2.99-4.3,6.71-6.23,10.24,0-3.98,2.93-6.83,3.92-10.41-4.35,4.63-5.75,10.34-6.14,16.68,1.5-1.4.36-3.51,2.23-5.22-2.22,14.52.85,27.77,5.18,40.85ZM241.3,349.55c-10.01,9.1-22.26,14.78-33.45,22.06-3.11,2.02-5.75,4.74-8.78,6.9-3.48,2.48-4.49,6.87-7.66,9.54-.05.04.11.33.18.54,1.18.16,1.74-.82,2.46-1.41,3.98-3.27,7.81-6.73,11.88-9.88,8.52-6.58,17.97-11.79,26.9-17.77,3.71-2.48,7.42-5.05,8.49-9.99ZM155.87,373.18c.37-.15.73-.3,1.1-.46-6.27-18.74-16.58-36.16-18.83-56.26-2.58,5.82-1.38,11.56-.26,17.24,1.7,8.63,6.51,15.98,10.18,23.8,2.48,5.29,5.2,10.46,7.82,15.68ZM168.24,324.52c.76-1.29.36-1.94.13-2.56-7.81-21.51-5.35-41.88,6.78-61.17.49-.79.93-1.54.15-2.7-4.58,3.74-9.28,7.24-11.01,13.32-3.86,13.56-4.04,27.17-.5,40.8,1.06,4.1,2.22,8.21,4.44,12.31ZM113.16,391.97c-.85,1.16-.43,2.15-.37,3.06.82,11.87,5.97,22.14,12.03,32.04.97,1.58,2.35,2.91,3.32,4.49.81,1.32,1.84.21,2.72.38.87.17.52-1.1.19-1.61-3.99-6.23-4.83-13.9-9.35-19.95-2.18-2.92-4.12-6.14-5.18-9.81-.83-2.88-2.18-5.61-3.38-8.61ZM128.07,363.32c-5.33,8.87,2.57,30.82,14.38,39.94.74-1,.1-1.9-.24-2.77-2.18-5.57-4.55-11.05-7.42-16.32-3.33-6.12-6.12-12.43-6.11-19.61,0-.49-.05-1.01-.61-1.25ZM236.11,221.49c-9.61,4.51-29.08,47.11-25.87,56.08,1.57-5.69,5.13-10.05,6.32-15.59,1.04-4.84,2.93-9.51,4.6-14.2,3.34-9.35,8.83-17.53,14.95-26.29ZM394.78,192.88c-.81,1.21-1.68,2.39-2.43,3.63-2.81,4.61-6.37,8.57-10.31,12.23-7.29,6.77-15.82,11.61-24.6,16.1-1.05.54-2.37.97-2.3,2.6,20.97-4.85,39.37-23.96,39.63-34.56ZM135.63,411.48c.85-1.64-.15-2.62.15-2.8,3.59-2.19-.11-3.57-.79-4.69-4.57-7.48-10.91-13.7-15.53-21.19-.74-1.2-.54-3.21-2.91-3.76,2.43,13.27,9.58,23.31,19.08,32.44ZM134.82,447.08l1.18-.71c-8.41-13.84-21.34-25.06-24.88-41.81-1.29,2.84-.76,5.52-.1,8.2,1.58,6.37,5.37,11.53,9.35,16.54,4.75,5.99,9.63,11.87,14.45,17.8ZM131.73,395.66c.31-.15.63-.31.94-.46-3.76-8.29-8.56-16.28-7.6-26.43-5.45,5.93-5.81,8.98-1.99,14.68,2.78,4.14,5.76,8.14,8.65,12.21ZM194.65,255.9c-4.95,10.39-5.1,20.9-.74,31.52,1.67-10.47-1.02-21.05.74-31.52ZM258.04,296.27c-13.34,2.8-26.13,7.06-36.8,16.14,12.23-5.41,24.37-11.03,36.8-16.14ZM205.87,460.13c-7.41-.24-32.4,16.2-33.09,22.07,10.23-8.87,21.16-15.92,33.09-22.07ZM183.19,585.27c1-2.31.44-4.38-.56-6.32-4.5-8.76-2.34-16.33,4.02-23.2.82-.89,1.81-1.7,2.02-3.52-2.4,1.94-4.14,3.9-5.73,5.99-2.8,3.67-4.53,7.76-4.3,12.44.25,5.23,3.39,9.62,4.56,14.61ZM186.83,304.89c-.67-11.94-3.26-23.69-3.73-35.65-.67,12.09-1.1,24.15,3.73,35.65ZM191.67,366.46c5.9-2.6,11.1-6.29,16.11-10.27-6.27,2.01-11.53,5.61-16.11,10.27ZM218.42,524.89c5.78,1.97,12.95-2.07,11.85-6.86-2.67,4.8-6.62,6.97-11.85,6.86ZM167.13,487.29c1.49-.84,2.9-1.76,3.33-3.61-1.47.86-2.76,1.89-3.33,3.61ZM214.95,364.73c-1.71.64-2.76,1.32-4,2.57,1.83-.3,2.89-.96,4-2.57ZM207.7,369.74c.19-.01.46.04.51-.04.22-.32,1.12-.54.55-.95-.38-.28-.95.36-1.07.99ZM240.25,348.02c.28-.24.55-.46.82-.69-.13-.06-.31-.21-.39-.17-.24.11-.46.3-.67.47-.01,0,.11.18.24.39ZM303.59,189.44c-.17-.07-.33-.19-.47-.17-.15.02-.29.17-.44.26.22.09.44.2.67.24.06.01.15-.21.24-.33ZM194.05,374.39c.16-.08.32-.16.47-.23-.08-.13-.16-.37-.23-.37-.16,0-.31.13-.47.21.08.13.16.26.23.39ZM162.42,358.32c-.07-.16-.12-.45-.23-.47-.35-.08-.48.16-.38.47.05.17.2.31.31.46.1-.15.2-.3.3-.46ZM260.84,311.14c-.09.02-.18.04-.27.06.02.05.05.15.07.15.09,0,.18-.04.27-.06-.02-.05-.05-.1-.07-.15ZM258.12,230.23c-.14.09-.35.15-.38.26-.04.12.09.29.15.44.12-.1.3-.17.35-.3.04-.1-.07-.26-.12-.41ZM219.14,282.47c-.22-.07-.37-.15-.52-.16-.06,0-.13.13-.19.2.11.1.23.28.32.27.13-.02.25-.18.4-.3ZM146.5,387.27c-.05.18-.12.33-.14.48,0,.06.1.13.16.2.08-.12.23-.23.24-.35,0-.1-.15-.21-.25-.33ZM206.66,370.6c-.05-.06-.1-.15-.16-.16-.06,0-.12.08-.19.12.05.06.1.15.16.16.06,0,.12-.08.19-.12ZM220.3,312.92l-.12.15.19.03-.07-.18ZM161.67,274.78c-.06-.11-.13-.23-.19-.35-.06.06-.17.14-.16.18.03.13.11.25.17.37.06-.06.12-.12.19-.2ZM268.16,235.59l-.09.15h.16s-.07-.15-.07-.15ZM186.84,402.92c-.05-.06-.1-.12-.15-.18-.06.05-.16.1-.16.16,0,.06.09.12.14.18.06-.05.12-.11.17-.16ZM162.24,417.04l-.12.2.21.02-.09-.22ZM193.32,442.3l-.09.14.14.02-.05-.15ZM386.17,219.79c.06-.05.17-.1.17-.16,0-.06-.09-.13-.14-.19-.07.08-.13.17-.2.25.05.04.11.07.16.11ZM248.62,333.99c-.07-.07-.14-.2-.21-.2-.07,0-.15.12-.22.18.11.07.22.14.32.21.04-.07.08-.13.11-.2ZM200.68,354.31c-.06-.06-.13-.16-.19-.16-.06,0-.13.1-.19.16.06.06.12.17.18.17.06,0,.13-.1.2-.17ZM137.58,408.63c-.07.06-.2.14-.19.18.03.14.11.27.18.4.06-.07.19-.14.18-.19-.03-.14-.11-.27-.16-.38ZM219.19,224.95c-.06-.06-.12-.16-.19-.16s-.13.1-.19.16c.09.06.18.13.27.19.03-.06.07-.12.11-.19ZM131.75,432.85c-.05-.07-.1-.13-.16-.2-.06.06-.16.12-.16.18,0,.06.09.13.14.2.06-.06.12-.12.18-.18ZM210.26,368.15c-.06-.06-.12-.17-.18-.17-.06,0-.14.09-.2.15.06.06.12.17.19.17.06,0,.14-.09.2-.14ZM238.77,349.2c.07-.07.19-.13.2-.2,0-.07-.11-.15-.17-.22-.07.1-.15.2-.22.3.06.04.13.08.19.12Z"/>
        <path class="cls-2" d="M388.96,447.12c-2.99,0-5.98.04-8.97-.01-2.68-.04-4.57-1.18-6.13-3.54-12.16-18.3-21.74-38.12-33.52-56.64-1.13-1.78-1.35-3.52.13-5.22,5.4-6.27,10.83-12.51,16.18-18.83,1.1-1.29,3.35-1.8,3.51-3.42.18-1.86-2.49-1.54-3.52-2.94-1.06-1.44-2.31-2.77-2.63-4.52-.45-2.48-1.64-2.56-3.78-2-6.84,1.81-14.58,8.18-14.26,18.34.23,7.39-2.44,11.44-7.81,13.36-1.4.5-2.74.87-3.81-.47-1.07-1.33-.47-2.66.28-3.88.52-.85,1.22-1.58,1.79-2.39,2.03-2.93.62-6.12-2.93-6.58-1.4-.18-2.77-.06-4.1.51-8.7,3.75-14.35,10.2-17.06,19.25-.7,2.36-.36,4.62,1.3,6.45,1.37,1.51,2.25,3.01,1.63,5.11-.18.59-.1,1.26.49,1.59.7.39,1.42.12,1.89-.44,1.68-2.03,3.76-3.83,2.01-7.03-1.25-2.28-.9-4.67,1.32-6.45.85-.68,1.95-1,2.73-.22.98.98.16,1.82-.71,2.43-1.58,1.11-2.28,2.45-1.39,4.35,2.09,4.47.43,8.23-2.3,11.76-.24.31-.49.66-.82.87-5.02,3.32-7.77,7.97-8.74,13.9-.39,2.38-1.55,4.76-4.74,4.26-2.62-.41-3.97-2.9-3.69-6.31.22-2.68,1.67-4.88,2.75-7.22,2.72-5.88,2.08-10.61-2.81-14.8-5.67-4.86-4.3-10.86-.86-15.11,2.18-2.71,4.81-5.05,7.19-7.6,2.06-2.2,3.87-4.59,4.39-7.67.22-1.27.31-2.29-1.68-2.24-2.59.07-3.1-1.1-1.54-3.34,5.37-7.74,12.75-12.47,21.91-14.49.78-.17,1.6-.25,2.31-.58,2.21-1.05,2.39-2.8.52-4.41-2.98-2.57-3.44-4.96-1.35-8.28,1.81-2.88,4.27-5.06,7.81-5.47,1.76-.2,3.43.24,4.35,1.97.92,1.73-.33,2.77-1.35,3.88-3.41,3.67-1.99,8.94,2.96,11.06,5.62,2.4,16.57-.19,20.98-4.49,12.01-11.7,25.7-20.77,41.91-25.66,4.46-1.34,8.79-1.75,12.76,1.46,2.68,2.16,4.68,4.68,4.65,8.28-.02,1.86.37,2.52,2.4,1.82,8.51-2.96,17.54-3.74,26.19-6.13,2.28-.63,4.34-.24,5.64,2.12,10.11,18.35,21.93,35.67,32.2,53.93,2.9,5.16,2.51,9.19-.62,14.03-8.99,13.91-18.19,27.62-28.5,40.63-5.85,7.38-13.03,11.01-22,12.26-14.14,1.96-28.28,3.83-42.56,4.77ZM356.01,368.52c.3-.12.78-.25.41-.66-.36-.41-.54.1-.74.32-.27.22-.77.45-.33.82.48.4.53-.17.66-.48ZM371.54,331.32c.29-.05.62-.03.87-.16,8.16-4.14,16.4-8.1,25.35-10.3,1.63-.4,3.38-1.34,4.93-.67,1.59.68,2.56.71,3.4-.82.56-1.01,1.75-1.98,1-3.22-.97-1.61-2.67-.86-4.1-.79-.49.02-.96.23-1.44.36-10.59,2.86-19.84,8.54-29.19,13.99-.49.29-1.22.8-.78,1.67-.16-.04-.31-.08-.47-.12.02.13.04.27.06.4l.37-.34ZM406.27,334.89l-.04.02c-.25,3.66-4.35,4.81-5.76,8.74,2.08-1.03,3.33-1.89,4.45-2.98,1.14-1.11,2.17-2.39,3.48-3.27,4.67-3.14,5.63-7.98,5.93-12.99.15-2.48-1.46-4.49-3.14-6.26-.91-.96-1.48-.96-2.12.42-1.41,3.03-3.68,5.43-6.21,7.57-10.88,9.19-22.85,16.51-36.3,21.31-.62.22-1.59.22-1.34,1.12.2.75.93.6,1.73.42,3.55-.8,6.87-2.15,10.18-3.63,8.96-4.01,18.24-7.5,25.12-14.95,1.14-1.24,1.56.15,2.31.21,1.63.12.25.9.15,1.28-.27.93-.12,1.37.93,1.19l-.06-.05c.21.63-.31,1.53.7,1.86ZM439.24,334.92c3.5-2.65,5.52-6.47,7.9-9.99.57-.85,1.67-1.78.76-2.9-.71-.87-1.83-.4-2.82-.29-9.17,1.01-17.82,4.12-26.66,6.45-1.59.42-1.73,1.04-1.09,2.25.7,1.32,1.48,2.59,2.15,3.93.25.51.43,1.21-.17,1.62-.25.17-.86.17-1.07-.02-1.99-1.79-3.34-.21-4.57.96-2.66,2.54-5.19,5.23-7.76,7.86-.67.68-1.88,1.56-1.23,2.36.65.79,1.42,1.82,2.92,1.9,1.36.07,2.32-.4,3.27-1.06,2.3-1.59,4.31-3.5,6.11-5.66.58-.69,1.26-2.18,2.22-1.5,1.23.85-.31,1.81-.63,2.72-.64,1.84-2.27,3.18-2.72,5.13-.17.15-.35.3-.52.45.13.09.26.18.39.26.07-.21.14-.42.21-.64.89.78,1.45-.08,2.04-.47,3.28-2.12,5.92-4.96,8.61-7.75.96-.99,1.84-2.08,3.34-2.34,2.31-.39,3.85-1.91,5.25-3.65,2.26-2.82,4.54-5.63,7.21-8.95.04,2.6-.73,4.24-1.86,5.7-.79,1.01-1.69,1.89-1.38,3.35-2.72,1.27-3.43,3.97-4.63,6.32,1.77-1.88,4.04-3.37,4.73-6.06ZM456.2,384.34c-1.85,1.48-1.76,1.47-1.36,3.68.19,1.04.84,1.04,1.48,1.01,8-.37,15.83-1.2,20.84-8.71.87-1.3,1.42-1.31,2.33.06,1.83,2.76.16,5.05-1,7.19-8.73,16.1-20.74,29.7-33,43.11-2.19,2.39-5.02,3.53-8.16,4.02-6.6,1.04-13.19,2.19-19.81,3.09-9.98,1.37-19.91,3.17-30,3.57-2.14.08-4.23-.04-3.42-3.18.24-.93-.58-.86-1.01-1.13-3.26-2.06-5.89-4.76-8.01-7.95-5.93-8.88-11.69-17.87-16.49-27.42-2.05-4.08-4.31-8.03-6.7-12.08,15.25-4.39,31.29-4.65,46.45-9.3-1.38-.57-2.69-.25-4.02-.1-3.2.34-6.26,1.32-9.42,1.86-11.69,1.99-23.48,3.16-35.22,4.66-5.86.75-5.82.74-2.68,5.54,10.17,15.53,18.66,32.05,28.06,48.04,1.82,3.09,3.97,4.5,7.4,4.32,1.99-.11,4-.05,5.98-.21,15.62-1.26,31.1-3.25,46.43-6.77,6.31-1.45,10.78-4.26,14.96-9.02,11.73-13.38,22.31-27.55,31.29-42.92,1.51-2.59,1.46-4.85-.26-7.48-3.71-5.67-7.12-11.53-10.58-17.36-6.72-11.3-14.35-22.09-19.79-34.13-1.23-2.72-2-1.06-2.87.21-7.4,10.79-14.64,21.69-23.07,31.73-.61.72-1.46,1.59-1.44,3.3,4.79-2.46,7.48-6.59,11.01-10.21-1.47,4.03-3.38,7.51-5.59,10.85-.47.71-1.48,1.46-.61,2.32,1.67,1.65,1.15,3.71,1,5.52-.4,4.85,1.28,7.62,5.94,9.41,5.66,2.17,11.49,2.33,17.4,1.79.86-.08,1.72-.19,3.24-.36-1.69,1.41-3.33,1.28-4.15,2.63,1.53.85,3.05.13,4.85.41ZM354.77,369.38c-4.84,3.97-8.92,8.63-12.45,13.74-1.3,1.88-.05,2.75,1.94,2.54,5.34-.58,10.74-.87,15.99-1.93,2.83-.57,5.85-.77,8.54-2.08-6.24-.43-12.38,1.22-18.98.68,2.27-2.16-.81-4.61,1.18-6.71,1.64-1.74,3.18-3.69,3.78-6.25ZM291.56,392.2c-1.19-4.03.39-7.29,2.93-10.15,1.91-2.14,4.19-3.95,6.22-5.99,1.67-1.67,3.24-3.45,3.3-6.07-2.6,3.43-5.45,6.55-8.75,9.25-1.64,1.34-2.91,3-3.9,4.85-1.46,2.72-1.45,5.45.2,8.11ZM366.27,357.47c-1.22-.8-2.14-1.5-1.78-3.18.2-.94-1.59-2.3-2.24-1.58-2.15,2.39-3.55.12-5.28-.66,1.05,5.02,4.34,6.97,9.3,5.42ZM317.29,351.19c-4.56-.44-8.04,1.89-11.39,4.54,3.9-1.26,7.5-3.27,11.39-4.54ZM371.25,381.49c.17-.06.34-.11.5-.17-.14-.08-.28-.24-.4-.22-.2.02-.39.16-.59.24.16.05.32.1.49.15ZM400.03,343.75c.06-.05.12-.09.18-.14-.05-.05-.11-.15-.16-.15-.06,0-.12.08-.18.13.05.06.1.11.16.16Z"/>
        <path class="cls-2" d="M458.68,599.2c-3.59,3.32-7.88,3.09-12.18,2.76-1.19-.09-2.39-.28-3.54-.59-6.5-1.75-12.66-1.03-19.01,1.3-12.17,4.45-24.71,7.14-37.84,5.5-3.58-.45-7.09-1.16-10.49-2.32-10.84-3.7-21.6-7.69-32.77-10.33-8.31-1.97-16.64-2.14-24.65,1.46-1.65.74-4.04,1.25-4.1,3.48-.07,2.46,2.44,2.9,4.19,3.64,8.88,3.78,18.06,4.77,27.52,2.68.49-.11.97-.24,1.47-.28,1.22-.08,2.61-.16,3.03,1.27.41,1.37-.73,2.17-1.75,2.8-3.72,2.33-7.85,2.36-11.89,1.54-12.6-2.56-25.1-5.62-37.77-7.87-26.59-4.72-53.25-6.97-80.06-2.07-13.96,2.55-27.4,6.8-39.92,13.66-.8.44-1.56,1.33-3.25.65,4.87-3.07,8.31-7.4,13.56-9.56,8.59-3.54,17.16-6.97,26.36-8.66,11-2.01,22.07-1.68,33.14-1.15,12.96.61,25.92,1.63,38.86-.26,3.96-.58,7.85-1.43,11.62-2.79,4.5-1.63,7.02-5.16,6.06-8.36-.92-3.05-4.79-4.61-9.41-3.76-3.2.59-5.96,2.23-8.71,3.84-3.36,1.97-6.74,3.88-10.68,4.5-2.14.34-4.18.15-6.14-.76-.93-.43-1.89-.97-1.56-2.21.34-1.26,1.61-1.98,2.55-1.46,5.59,3.09,9.33-.65,13.55-3.22,9.47-5.75,19.9-6.74,30.64-5.54,10.31,1.15,19.96,4.7,29.39,8.83,11.8,5.17,23.44,10.74,36.02,13.87,12.44,3.1,24.66,2.89,36.73-1.84,8.76-3.43,17.66-3.81,26.64-.61,4.63,1.65,9.35,2.88,14.39,1.83ZM344.4,588.53c-1.12-.83-1.53-1.23-2.02-1.49-9.54-5.13-19.86-7.5-30.56-8.44-.82-.07-2.24-.43-2.31.63-.1,1.46,1.44.98,2.31,1.05,7.38.57,14.57,1.95,21.65,4.17,3.47,1.09,6.74,2.68,10.94,4.09Z"/>
        <path class="cls-2" d="M257.83,495.36c-2.46-.26-4.94-.84-7.28-2.09-2.37-1.26-4.84-2.11-6.99.55-.5.62-1.22.78-1.8.08-.62-.76-.33-1.58.29-2.14,1.16-1.05,2.64-1.41,4.16-1.4,7.01.06,10.63-4.62,13.85-9.85.42-.68.63-1.45.37-2.29-.22-.7-.31-1.43.61-1.71.58-.18,1.2-.12,1.67.35.52.52.92,1.17.53,1.87-.43.77-1,1.47-1.58,2.14-.89,1.03-1.72,2.08-.56,3.39,1.14,1.28,2.46,1.09,3.75.19,3.21-2.23,4.85-5.48,5.72-9.15.69-2.94,1.91-5.43,4.7-6.91.79-.42,1.64-1.07,2.32.03.87,1.4-.54,1.51-1.24,1.71-2.35.67-2.94,2.54-3.2,4.56-.35,2.66-.46,5.36-.8,8.03-.93,7.25-7.13,12.67-14.5,12.62Z"/>
        <path class="cls-2" d="M305.01,435.54c-.9,5.69-3.07,11.03-5.66,16.16-1.16,2.3-4.54,2.53-6.59.97-1.65-1.26-1.76-3.66.43-5.39,4.47-3.56,4.54-8.54,5.07-13.46.1-.88-.05-1.9.36-2.6.66-1.11,1.78-1.89,3.19-1.88,1.48.01,2.04,1.2,2.41,2.3.41,1.21.52,2.52.78,3.89ZM296.62,446.94c1.89-1.07,2.75-2.61,2.31-4.72-.58,1.67-2.16,2.91-2.26,4.8-.61-.49-.81,0-1,.44-.02.04.24.3.34.29.42-.07.7-.31.61-.8Z"/>
        <path class="cls-2" d="M408.25,586.99c-.1,1.93-1.04,3.13-2.93,3.17-1.87.04-3.06-1.15-3.07-2.97-.01-1.65,1.05-2.84,2.79-2.96,1.89-.13,2.94.95,3.22,2.76Z"/>
        <path class="cls-2" d="M354.76,336.21c-.43,1.8-1.4,2.97-3.29,2.83-1.75-.13-2.68-1.25-2.62-2.99.07-1.74,1.15-2.76,2.85-2.8,1.93-.04,2.71,1.3,3.06,2.95Z"/>
        <path class="cls-2" d="M213.79,502.99c.07-1.78,1.05-2.77,2.76-2.83,1.91-.06,2.91,1.11,2.93,2.95.02,1.74-1.01,2.84-2.74,2.83-1.81,0-2.92-1.02-2.95-2.96Z"/>
        <path class="cls-2" d="M261.83,586.75c-.26,1.44-1.01,2.37-2.6,2.26-1.6-.11-2.32-1.19-2.24-2.63.08-1.36,1.02-2.18,2.42-2.14,1.52.05,2.35.94,2.42,2.51Z"/>
        <path class="cls-2" d="M390.1,593.33c-.04,1.48-.67,2.44-2.08,2.53-1.53.1-2.46-.71-2.5-2.3-.05-1.49.86-2.16,2.23-2.24,1.46-.09,2.18.72,2.35,2.01Z"/>
        <path class="cls-2" d="M318.82,379.43c-.1,1.36-.8,2.17-2.21,2.23-1.41.06-2.3-.72-2.37-2.07-.08-1.49.74-2.41,2.32-2.41,1.44,0,2.09.89,2.27,2.25Z"/>
        <path class="cls-2" d="M312.31,345.05c-.11,1.2-.86,1.82-1.99,1.77-1.11-.05-1.91-.73-1.84-1.93.08-1.24.78-2.15,2.11-1.95,1.04.16,1.81.85,1.71,2.11Z"/>
        <path class="cls-2" d="M192.2,529.76c-.16,1.12-.81,1.64-1.85,1.61-1.22-.04-1.82-.79-1.73-1.96.08-1.04.79-1.61,1.82-1.58,1.24.04,1.71.84,1.75,1.94Z"/>
        <polygon class="cls-2" points="108.66 675.49 108.42 675.58 108.43 675.37 108.66 675.49"/>
        <path class="cls-2" d="M261.85,217.51c.22-.22.44-.44.67-.67.13.57-.14.74-.67.67Z"/>
        <path class="cls-2" d="M148.67,332.5q-.72-1.02-.98-2.3c1.18.56,1.14,1.42.92,2.35,0,0,.07-.05.07-.05Z"/>
        <path class="cls-2" d="M147.15,327.87c.2.45.38.69.39.94,0,.18-.24.35-.37.53-.08-.17-.23-.33-.23-.5,0-.25.1-.51.21-.97Z"/>
        <path class="cls-2" d="M143.83,311.28c-.17-.2-.35-.32-.35-.44,0-.26.1-.53.16-.79.1.12.28.23.29.35.02.26-.05.52-.1.88Z"/>
        <path class="cls-2" d="M188.11,417.75c-.24.12-.48.24-.71.35-.08-.17-.26-.42-.21-.48.16-.19.41-.31.62-.46.08.16.17.33.3.59Z"/>
        <path class="cls-2" d="M196.95,372.44c.03-.05.05-.14.08-.15.07,0,.14.03.22.05-.03.05-.05.15-.08.15-.07,0-.14-.03-.22-.05Z"/>
        <path class="cls-2" d="M228.98,219.93c-3.27,3.97-6.98,7.54-9.88,11.85-5.54,8.21-9.17,17.16-11.28,26.79-.11.48-.23.97-.42,1.43-.1.24-.35.42-.73.85-1-1.51-.04-2.81.21-3.97,3.06-14.31,9.94-26.49,20.62-36.52.34-.32.65-.79,1.25-.59,0,0,.23.18.23.18Z"/>
        <path class="cls-2" d="M229.5,217.45c.62.6,1.23-.21,1.85,0,.39,1.45-.7,1.66-1.66,1.98-.17-.16-.34-.32-.51-.47.16-.49.92-.85.32-1.5Z"/>
        <path class="cls-2" d="M229.68,219.42c-.08.39-.25.64-.7.51,0,0-.22-.18-.23-.18.14-.27.28-.53.42-.8.17.16.34.32.51.47Z"/>
        <path class="cls-2" d="M192.83,398.46c-.15-.35-.34-.58-.3-.77.04-.19.29-.34.45-.51.15.2.41.4.4.59-.01.2-.29.38-.56.7Z"/>
        <path class="cls-2" d="M202.01,439.78c-.23,0-.46,0-.69,0,.23,0,.46,0,.69,0Z"/>
        <path class="cls-2" d="M221.76,433.74c.26,1.49-.4,2.06-1.85,1.84.21-1.02.74-1.72,1.85-1.84Z"/>
        <path class="cls-2" d="M134.56,406.85c.12-.11.23-.2.33-.3l.38.58c-.15.05-.33.17-.43.12-.13-.06-.19-.26-.29-.4Z"/>
        <polygon class="cls-2" points="406.27 334.89 406.34 334.86 406.23 334.91 406.27 334.89"/>
        <path class="cls-2" d="M405.62,333.08s-.03-.03-.05-.05c0,0,.05.05.05.05Z"/>
      </g>
      <g>
        <path d="M180.71,0l-23.5,87.25h-24.94l-15.6-56.84-15.25,56.84h-24.88L53.03,0h23.48l13.38,60.06L106,0h22.44l15.27,60.06L157.77,0h22.94Z"/>
        <path d="M279.73,87.25h-27.48l-23.73-31.99h-10.42v31.99h-22.38V0h37.73c5.16,0,9.59.29,13.3.88,3.71.59,7.19,1.86,10.43,3.81,3.28,1.95,5.89,4.48,7.82,7.59s2.9,7,2.9,11.69c0,6.45-1.49,11.7-4.48,15.76-2.99,4.06-7.26,7.44-12.8,10.14l29.12,37.38ZM244.63,26.72c0-2.19-.45-4.06-1.35-5.62-.9-1.56-2.44-2.79-4.63-3.69-1.52-.62-3.3-1-5.33-1.14-2.03-.14-4.39-.21-7.09-.21h-8.14v23.5h6.91c3.59,0,6.6-.18,9.02-.53,2.42-.35,4.45-1.15,6.09-2.4,1.56-1.21,2.7-2.55,3.43-4.01.72-1.46,1.08-3.43,1.08-5.89Z"/>
        <path d="M336.74,87.25h-51.09v-15.47h14.3V15.47h-14.3V0h51.09v15.47h-14.3v56.31h14.3v15.47Z"/>
        <path d="M423.34,16.88h-27.25v70.37h-22.5V16.88h-27.25V0h76.99v16.88Z"/>
        <path d="M499.99,87.25h-63.11V0h63.11v16.88h-40.72v15.06h37.79v16.88h-37.79v21.56h40.72v16.88Z"/>
      </g>
    </g>
  </g>
</svg>